# xmcd
#
# Track frame offsets: 
#        150
#        16603
#        33117
#        49658
#
# Disc length: 880 seconds
#
# Revision: 0
# Processed by: cddbd v1.5.2PL0 Copyright (c) Steve Scherf et al.
# Submitted via: ExactAudioCopy v0.99pb4
#
DISCID=1e036e04
DTITLE=Obie Trice - Jamaican Girl
DYEAR=2006
DGENRE=Hip-Hop
TTITLE0=Jamaican Girl (ft. Brick and Lace) (Edit)
TTITLE1=Jamaican Girl (ft. Brick and Lace)
TTITLE2=Jamaican Girl (INST)
TTITLE3=Jamaican Girl (Acapella)
EXTD=
EXTT0=
EXTT1=
EXTT2=
EXTT3=
PLAYORDER=
